<?xml version="1.0" standalone="no"?>
<!DOCTYPE svg PUBLIC "-//W3C//DTD SVG 20010904//EN"
 "http://www.w3.org/TR/2001/REC-SVG-20010904/DTD/svg10.dtd">
<svg version="1.0" xmlns="http://www.w3.org/2000/svg"
 width="786.000000pt" height="644.000000pt" viewBox="0 0 786.000000 644.000000"
 preserveAspectRatio="xMidYMid meet">

<g transform="translate(0.000000,644.000000) scale(0.100000,-0.100000)"
fill="#000000" stroke="none">
<path d="M4395 4731 c-33 -4 -80 -16 -105 -27 -51 -24 -95 -67 -86 -83 4 -6 1
-9 -7 -5 -8 3 -18 -6 -25 -21 -16 -34 -15 -57 3 -81 8 -10 15 -29 15 -41 0
-22 45 -83 61 -83 6 0 20 -9 31 -20 21 -19 31 -19 76 -3 6 3 12 -2 12 -11 0
-22 6 -21 61 14 35 23 52 43 68 80 29 67 27 93 -10 124 -56 47 -159 30 -159
-27 0 -37 23 -67 52 -67 15 0 28 5 28 10 0 6 7 10 15 10 30 0 15 -39 -22 -59
-60 -31 -133 5 -133 65 0 41 12 68 48 107 23 24 32 27 95 27 69 0 70 0 113
-44 44 -43 51 -66 44 -131 -3 -28 -34 -87 -67 -125 -17 -21 -23 -35 -16 -37 7
-3 9 -11 6 -19 -3 -10 -9 -11 -17 -5 -18 15 -77 -18 -88 -51 -10 -28 -33 -38
-40 -17 -7 21 -79 -24 -94 -59 -7 -18 -19 -32 -26 -30 -21 5 -107 -72 -100
-90 3 -10 1 -13 -7 -8 -17 11 -40 -12 -34 -34 4 -16 0 -20 -19 -20 -18 0 -29
-10 -46 -42 -31 -60 -57 -105 -71 -122 -7 -8 -13 -30 -14 -49 -1 -19 -5 -33
-9 -30 -13 7 -9 -62 5 -76 10 -10 8 -15 -8 -27 -18 -14 -20 -13 -24 3 -1 10
-13 32 -25 48 -13 17 -26 42 -30 58 -4 17 -13 27 -25 27 -14 0 -18 5 -14 20 3
13 -5 32 -26 55 -17 20 -31 44 -31 55 0 12 -9 20 -29 25 -15 3 -34 17 -41 30
-7 13 -18 21 -26 18 -8 -3 -14 5 -16 23 -4 36 -141 135 -160 116 -16 -16 -28
-15 -28 1 0 6 -21 29 -46 49 -39 31 -49 36 -70 27 -14 -5 -27 -9 -30 -9 -2 0
-4 25 -4 56 0 51 -3 59 -34 88 -48 45 -68 88 -64 144 3 41 7 49 35 63 17 9 44
24 60 35 22 15 46 19 110 19 51 0 87 -5 94 -12 13 -13 15 -87 4 -122 -3 -11
-24 -34 -46 -51 -34 -28 -40 -30 -46 -14 -4 10 0 21 9 28 8 6 20 20 26 32 16
30 -16 61 -72 69 -99 15 -137 -55 -78 -143 32 -49 107 -108 117 -92 3 5 17 7
31 4 29 -8 70 16 80 48 3 12 15 29 25 37 25 22 59 126 59 181 0 39 -5 51 -32
77 -65 60 -203 102 -272 82 -102 -29 -266 -142 -266 -183 0 -10 -7 -33 -16
-51 -14 -31 -14 -39 1 -92 9 -32 36 -92 61 -134 24 -42 44 -80 44 -85 0 -18
105 -112 163 -145 97 -56 121 -73 157 -107 19 -17 44 -35 55 -38 11 -4 45 -30
75 -58 30 -28 76 -67 102 -86 30 -22 47 -43 48 -56 0 -12 7 -27 16 -35 22 -18
46 -67 36 -73 -5 -3 -31 22 -58 55 -51 63 -150 137 -250 187 -32 17 -90 46
-127 65 -38 19 -85 37 -105 41 -20 3 -50 13 -66 21 -32 17 -43 13 -57 -22 -8
-22 -11 -23 -24 -9 -8 8 -12 21 -9 30 7 18 -64 40 -104 32 -15 -3 -33 -2 -41
3 -8 5 -26 4 -45 -4 -28 -12 -34 -11 -62 10 -34 26 -122 45 -171 38 -29 -5
-33 -1 -52 35 -11 23 -30 47 -41 55 -13 9 -27 38 -36 75 l-15 60 37 51 c20 29
50 59 68 68 17 9 41 24 54 34 19 15 28 16 55 7 18 -6 39 -16 47 -22 8 -7 27
-17 43 -24 31 -13 34 -30 11 -75 -28 -54 -54 -77 -91 -77 -26 0 -33 4 -33 20
0 15 7 20 25 20 15 0 31 10 42 26 16 25 16 27 -2 40 -10 8 -38 14 -61 14 -36
0 -46 -5 -83 -45 -44 -48 -47 -55 -30 -88 39 -76 121 -145 150 -126 8 5 38 9
68 9 46 0 57 4 85 33 18 17 43 59 55 92 12 33 29 65 37 72 14 10 14 16 1 55
-8 23 -20 64 -28 90 -15 53 -34 65 -173 107 -134 41 -186 36 -278 -25 -28 -18
-55 -31 -60 -28 -4 3 -8 0 -8 -7 0 -7 -3 -9 -7 -5 -8 8 -46 -49 -74 -112 -21
-47 -27 -176 -9 -187 5 -3 9 -16 9 -28 -1 -12 9 -51 22 -87 12 -36 24 -70 25
-77 2 -7 20 -21 41 -32 21 -10 54 -34 74 -53 34 -31 103 -60 179 -74 19 -3 58
-16 85 -29 84 -38 156 -55 248 -59 48 -2 93 -9 100 -14 13 -10 120 -46 172
-57 43 -9 182 -79 238 -119 27 -19 64 -55 83 -79 20 -25 42 -48 50 -51 17 -7
19 -26 1 -26 -7 0 -45 23 -86 50 -41 28 -80 50 -88 50 -18 0 -72 28 -91 47
-45 45 -258 103 -378 103 -58 0 -92 -12 -62 -23 7 -2 -2 -11 -20 -21 -18 -9
-37 -14 -43 -10 -6 4 -15 0 -20 -7 -7 -11 -9 -11 -9 2 0 9 -7 19 -15 23 -9 3
-15 0 -15 -9 0 -8 -4 -15 -10 -15 -5 0 -10 5 -10 10 0 6 -5 10 -11 10 -5 0 -7
-4 -4 -10 3 -5 -1 -10 -10 -10 -9 0 -34 -9 -56 -20 -28 -15 -49 -19 -73 -14
-40 7 -79 -15 -99 -55 -8 -17 -19 -25 -32 -23 -11 2 -47 4 -80 5 -33 0 -62 4
-65 8 -7 10 -135 12 -183 3 -36 -6 -40 -4 -103 60 -54 55 -65 71 -59 89 17 58
25 95 25 130 0 27 5 39 18 43 25 8 74 32 93 46 14 9 23 7 49 -15 17 -15 38
-27 47 -27 8 0 27 -9 41 -20 15 -12 38 -29 51 -39 29 -22 22 -58 -16 -72 -30
-11 -47 0 -69 43 -16 31 -68 68 -95 68 -22 0 -69 -69 -79 -116 -10 -44 2 -72
51 -122 22 -22 37 -31 48 -26 9 4 44 10 78 14 64 8 101 29 168 100 27 28 31
41 40 131 l11 100 -66 44 c-36 25 -76 56 -88 70 -18 18 -30 23 -48 19 -13 -4
-31 -1 -38 5 -21 18 -115 11 -158 -10 -21 -10 -38 -16 -38 -13 0 3 -7 -1 -15
-10 -9 -8 -43 -37 -76 -63 -69 -54 -101 -107 -119 -199 -14 -69 0 -135 52
-239 26 -52 39 -66 101 -106 40 -25 85 -51 101 -58 45 -18 182 -36 271 -35 91
2 215 23 215 36 0 5 5 6 10 3 6 -3 10 -1 10 5 0 7 7 10 15 7 8 -4 46 5 84 18
39 13 92 26 119 29 27 3 71 15 98 27 68 29 198 23 264 -12 25 -13 53 -22 63
-21 9 2 17 -1 17 -7 0 -5 13 -12 30 -16 16 -3 39 -14 52 -24 13 -10 37 -24 53
-33 17 -8 39 -19 50 -26 11 -6 36 -18 56 -27 19 -9 50 -28 69 -43 29 -24 31
-31 21 -49 -17 -33 -47 -37 -88 -13 -93 55 -155 73 -258 76 -55 2 -113 6 -130
9 -22 5 -47 -2 -95 -24 -36 -17 -75 -31 -86 -31 -12 0 -29 -11 -38 -25 -9 -14
-22 -22 -30 -19 -8 3 -17 0 -21 -5 -3 -6 -22 -18 -41 -26 -19 -8 -37 -22 -40
-32 -18 -52 -30 -73 -41 -69 -7 3 -33 -2 -58 -12 -39 -14 -47 -22 -55 -54 -7
-25 -15 -35 -24 -32 -7 3 -21 -2 -30 -11 -9 -9 -16 -13 -16 -8 0 4 -5 0 -11
-10 -6 -9 -14 -15 -19 -12 -5 3 -38 -21 -74 -53 -85 -77 -117 -86 -261 -71
-107 12 -108 12 -144 52 -66 74 -79 104 -74 171 5 63 9 69 74 119 45 33 143
16 215 -39 41 -30 47 -57 22 -89 -21 -28 -55 -32 -107 -14 -54 19 -35 49 31
49 42 0 31 20 -26 48 -47 22 -47 22 -84 3 -50 -25 -58 -37 -66 -91 -6 -43 -4
-47 39 -92 l44 -48 88 0 c73 0 95 4 127 23 42 23 76 77 76 118 0 13 0 41 0 61
1 50 -63 185 -95 202 -11 6 -31 18 -45 27 -15 9 -59 20 -100 23 -41 4 -82 9
-91 12 -8 2 -29 -7 -45 -21 -16 -14 -33 -25 -38 -25 -21 0 -116 -82 -116 -100
0 -10 -5 -22 -10 -25 -13 -8 -50 -84 -50 -102 0 -8 -7 -28 -16 -45 -13 -25
-14 -36 -5 -50 6 -10 11 -28 11 -41 0 -34 34 -128 67 -187 22 -40 33 -50 54
-50 15 0 32 -7 39 -15 6 -8 22 -17 33 -21 12 -4 35 -16 51 -27 20 -14 48 -21
92 -23 36 -2 77 -7 92 -10 76 -19 273 28 358 86 64 45 254 233 254 253 0 11
14 20 40 27 23 6 47 21 56 35 20 31 83 53 95 34 6 -10 20 -11 68 -3 34 6 109
9 169 8 110 -1 164 -15 191 -48 8 -9 29 -23 47 -32 18 -9 41 -28 50 -42 9 -15
30 -39 46 -54 l30 -26 -21 -21 c-12 -12 -25 -21 -29 -21 -13 0 -36 -76 -29
-94 3 -8 -6 -36 -20 -61 -32 -58 -33 -125 -4 -220 25 -79 26 -129 6 -169 -8
-16 -18 -45 -21 -66 l-6 -37 -39 11 c-37 9 -41 8 -72 -22 -18 -18 -36 -32 -40
-32 -14 0 -66 -65 -67 -82 0 -9 -4 -20 -10 -23 -5 -3 -10 -16 -10 -28 -1 -12
-8 -40 -16 -62 -45 -114 -56 -289 -25 -382 11 -32 23 -73 26 -92 11 -52 56
-144 79 -161 12 -8 42 -34 68 -58 50 -47 133 -81 242 -101 33 -6 146 -11 251
-11 223 0 248 6 404 97 146 86 167 111 202 243 17 68 23 126 22 217 -2 88 -4
97 -57 218 -31 69 -56 129 -56 133 0 5 -17 32 -37 60 -82 113 -96 140 -90 184
3 22 17 63 31 90 14 27 26 56 26 64 0 7 14 24 31 36 33 24 69 85 69 115 0 10
-5 35 -11 56 -9 35 -12 37 -50 37 -80 0 -142 46 -155 116 -8 42 46 164 87 199
47 39 112 59 172 52 185 -23 261 -48 408 -137 135 -81 172 -111 220 -176 38
-51 65 -71 53 -39 -5 11 -2 13 10 9 9 -3 19 -17 22 -30 7 -29 50 -56 140 -90
120 -44 237 -42 344 4 19 9 37 16 40 17 51 11 111 62 125 105 4 13 14 30 22
38 8 8 12 21 8 30 -3 8 0 21 6 28 6 8 9 20 6 29 -4 8 -2 17 2 19 10 7 13 38
13 136 0 109 -15 153 -73 213 l-49 50 -133 -6 c-143 -6 -167 -11 -167 -34 0
-8 -16 -21 -36 -29 -20 -8 -38 -23 -41 -33 -3 -10 -15 -24 -28 -31 -19 -10
-40 -54 -52 -110 -7 -34 12 -76 54 -122 25 -26 49 -45 54 -42 5 3 9 1 9 -4 0
-15 87 -42 133 -42 37 0 102 30 119 54 4 6 8 38 8 72 l0 60 -52 37 c-48 33
-54 35 -70 20 -14 -13 -20 -13 -33 -3 -12 10 -15 10 -15 -4 0 -9 -4 -16 -10
-16 -5 0 -10 14 -10 30 0 25 6 33 35 47 30 14 40 15 74 3 61 -20 114 -53 129
-80 20 -39 12 -182 -12 -209 -11 -12 -25 -20 -32 -17 -7 3 -16 -4 -19 -15 -9
-28 -63 -59 -103 -59 -17 0 -31 -3 -30 -7 3 -9 -30 -59 -34 -52 -2 2 -10 17
-18 34 -17 33 -55 50 -43 19 4 -12 3 -15 -5 -10 -7 4 -12 2 -12 -5 0 -8 -7 -6
-19 5 -17 15 -19 16 -25 1 -9 -25 -22 -16 -59 40 -31 47 -35 50 -72 48 -30 -2
-36 0 -27 9 17 17 15 28 -7 28 -28 0 -43 24 -35 57 5 22 4 26 -6 16 -10 -9
-17 -7 -33 13 -12 16 -27 24 -37 21 -10 -2 -24 -1 -31 4 -11 7 -12 12 -2 28
11 18 8 23 -32 51 -24 17 -48 37 -53 45 -15 28 -125 135 -160 157 -31 19 -37
20 -45 6 -9 -13 -13 -13 -38 -1 -16 8 -31 19 -34 24 -16 26 -81 39 -190 39
-137 0 -211 -13 -245 -43 -46 -42 -72 -50 -118 -37 -46 12 -66 1 -91 -47 -13
-26 -36 -30 -44 -9 -7 19 54 119 82 132 12 7 44 34 69 62 32 34 60 54 87 61
23 6 51 20 63 31 12 12 27 18 32 15 17 -11 71 5 63 18 -4 7 1 6 11 -2 15 -13
22 -12 51 3 19 10 43 16 55 13 11 -3 18 -1 14 4 -3 5 -1 9 5 9 5 0 11 -6 14
-12 3 -10 9 -10 25 -1 16 10 23 9 31 -1 12 -14 27 -18 145 -35 37 -6 75 -16
83 -23 9 -7 28 -11 44 -10 15 2 39 -4 53 -13 16 -11 35 -15 49 -11 26 6 133
-18 154 -35 18 -16 260 -44 346 -41 23 1 70 18 118 43 96 50 183 138 194 197
9 49 7 193 -4 206 -5 6 -9 19 -10 29 0 9 -2 24 -3 32 -1 9 -11 15 -25 15 -21
0 -23 4 -23 48 0 44 -3 49 -45 82 -24 19 -47 43 -51 53 -3 10 -12 16 -20 13
-7 -3 -16 -1 -19 4 -4 6 -19 10 -34 10 -15 0 -36 7 -47 15 -24 18 -54 19 -54
3 0 -9 -3 -9 -9 1 -8 12 -12 12 -25 2 -9 -7 -14 -17 -11 -21 2 -4 -16 -16 -40
-26 -25 -10 -45 -21 -45 -25 0 -4 -24 -25 -54 -48 -36 -28 -54 -49 -54 -64 -1
-12 -4 -44 -7 -72 -5 -46 -3 -56 37 -125 40 -69 47 -76 88 -87 25 -6 75 -12
111 -12 56 -1 69 2 86 22 46 50 56 116 29 182 -35 82 -136 70 -136 -17 0 -21
5 -28 20 -28 11 0 20 -7 20 -15 0 -17 -21 -20 -35 -6 -6 5 -26 13 -45 18 -31
8 -36 14 -41 49 -5 25 -3 40 4 43 6 2 27 19 46 38 32 31 39 33 94 32 38 -1 61
-7 64 -15 3 -7 20 -18 38 -24 59 -19 95 -149 61 -217 -8 -15 -17 -36 -20 -46
-3 -10 -32 -30 -63 -45 -48 -22 -71 -27 -138 -26 -56 0 -89 5 -110 17 -16 9
-37 17 -45 17 -8 0 -29 9 -47 20 -25 15 -43 18 -81 13 -39 -4 -62 0 -127 27
-129 53 -217 80 -259 80 -22 0 -47 7 -56 15 -10 9 -40 16 -82 17 -55 1 -70 -2
-99 -24 -19 -14 -46 -28 -61 -32 -14 -3 -34 -9 -44 -13 -13 -5 -16 -3 -11 10
8 20 -9 22 -50 6 -15 -6 -40 -11 -54 -11 -18 0 -47 -17 -90 -54 -36 -30 -78
-56 -96 -60 -33 -6 -74 -50 -93 -98 -16 -43 -33 -32 -25 17 8 46 68 137 90
137 8 0 35 23 61 50 26 28 62 60 81 71 19 12 49 40 65 63 17 23 28 33 25 24
-8 -22 1 -23 22 -4 9 8 52 24 96 36 63 17 94 20 145 15 36 -4 70 -11 77 -17 7
-5 17 -6 24 -2 7 4 30 9 53 12 23 2 46 8 52 13 6 5 53 13 103 18 52 6 104 17
117 25 13 9 34 16 47 16 60 0 207 92 272 170 19 23 32 46 29 51 -3 6 -1 15 4
22 6 7 13 30 17 52 4 22 10 45 14 50 9 14 7 37 -3 54 -7 10 -6 12 4 6 19 -12
8 49 -19 106 -47 99 -141 171 -266 203 -76 20 -94 20 -118 -1 -11 -10 -17 -12
-13 -5 12 21 -42 14 -77 -10 -18 -13 -54 -46 -80 -74 -43 -46 -48 -57 -49
-100 -2 -94 39 -188 105 -238 28 -21 45 -26 93 -26 36 1 67 6 78 15 11 8 29
15 41 15 29 0 59 36 73 86 21 72 16 96 -29 141 -37 38 -43 41 -82 36 -75 -9
-108 -48 -93 -108 4 -16 16 -26 37 -30 42 -9 36 -39 -9 -43 -70 -7 -119 61
-107 149 8 58 36 96 83 116 32 13 36 13 71 -11 20 -14 47 -26 59 -26 13 0 43
-20 71 -47 61 -60 71 -99 46 -181 -23 -72 -49 -110 -83 -119 -15 -3 -46 -15
-70 -25 -25 -11 -60 -18 -82 -17 -27 2 -45 -3 -59 -15 -19 -17 -19 -19 -3 -44
9 -15 11 -23 5 -19 -7 5 -13 4 -13 -2 0 -7 -9 -7 -25 1 -16 7 -21 14 -14 18
18 12 -13 18 -55 11 -33 -5 -41 -11 -51 -40 -10 -29 -12 -31 -24 -17 -7 9 -21
16 -30 17 -10 0 -11 2 -3 6 22 9 13 23 -15 23 -46 0 -72 -11 -66 -26 3 -10 -3
-14 -20 -14 -19 0 -24 4 -21 18 5 15 -3 17 -83 12 -48 -3 -98 -11 -110 -18
-12 -6 -38 -12 -57 -12 -27 0 -46 -9 -73 -34 -21 -18 -54 -41 -75 -49 -20 -8
-39 -24 -42 -34 -7 -21 -72 -57 -87 -47 -5 3 14 29 43 58 29 28 70 73 91 99
22 26 55 56 75 66 21 11 47 32 59 48 12 17 37 37 57 47 38 18 107 77 202 173
75 76 105 151 107 270 l2 75 -55 50 c-93 84 -181 113 -305 99z m515 -785 c0
-2 -7 -6 -15 -10 -8 -3 -15 -1 -15 4 0 6 7 10 15 10 8 0 15 -2 15 -4z"/>
<path d="M1750 2812 c0 -34 23 -71 34 -54 4 7 4 27 0 47 -8 43 -34 48 -34 7z"/>
</g>
</svg>
